<?xml version="1.0" encoding="utf-8"?>
<!-- Generator: Adobe Illustrator 25.0.1, SVG Export Plug-In . SVG Version: 6.00 Build 0)  -->
<svg version="1.1" id="Layer_1" xmlns="http://www.w3.org/2000/svg" xmlns:xlink="http://www.w3.org/1999/xlink" x="0px" y="0px"
	 viewBox="0 0 90 90" style="enable-background:new 0 0 90 90;" xml:space="preserve">
<style type="text/css">
	.st0{fill:#27043C;}
</style>
<path class="st0" d="M44.3,77.6c-8.6,0-16.9-3.3-23.1-9.2c-0.9-0.9-1.3-2.2-1-3.4c0.3-1.2,1.2-2.2,2.5-2.6s2.6,0,3.5,0.8
	c4.9,4.6,11.4,7.2,18.2,7.2c2.5,0,5-0.3,7.5-1c1.9-0.4,3.7,0.7,4.2,2.5c0.5,1.8-0.5,3.8-2.3,4.4C50.7,77.1,47.5,77.6,44.3,77.6z"/>
<path class="st0" d="M77.1,50c0.2-1.5,0.3-3.1,0.3-4.6c-0.3-18-15.1-32.5-33.1-32.3c-12.6,0-24.2,7.1-29.9,18.4
	c-0.9,1.8-0.1,3.9,1.6,4.8c1.8,0.9,3.9,0.1,4.8-1.6c4.5-8.8,13.5-14.4,23.4-14.3c14.1-0.2,25.7,11,26,25.1c0,1.2-0.1,2.4-0.3,3.6
	c-0.1,0.9,0.1,1.9,0.7,2.7c0.6,0.8,1.4,1.3,2.4,1.4h0.6c1.8,0,3.3-1.3,3.6-3.1H77.1z"/>
<path class="st0" d="M87.6,54.9c0.2-0.9,0.3-1.8,0.2-2.7c-0.2-1.9-2-3.3-3.9-3.1c-1.9,0.3-3.3,2-3.1,3.9c-0.7,2.7-14.6,5.9-38.3,0
	c-17.9-4.5-30.2-11.7-33-16.5c-0.3-0.4-0.5-0.9-0.5-1.5c0.4-1.9-0.7-3.8-2.6-4.3c-1.9-0.5-3.8,0.6-4.4,2.4c-0.6,2.4-0.2,4.9,1.2,7
	c4.3,7.3,19,15.1,37.4,19.7c8.6,2.2,17.4,3.4,26.3,3.6C77.6,63.7,86,61.1,87.6,54.9L87.6,54.9z"/>
</svg>
