<?xml version="1.0" encoding="utf-8"?>
<!-- Generator: Adobe Illustrator 25.0.1, SVG Export Plug-In . SVG Version: 6.00 Build 0)  -->
<svg version="1.1" id="Layer_1" xmlns="http://www.w3.org/2000/svg" xmlns:xlink="http://www.w3.org/1999/xlink" x="0px" y="0px"
	 viewBox="0 0 90 90" style="enable-background:new 0 0 90 90;" xml:space="preserve">
<style type="text/css">
	.st0{fill:#FFFFFF;}
</style>
<desc>Created with Fabric.js 4.2.0</desc>
<g id="d7715385-ddf6-49a5-a6b4-f3bde4c21c66" transform="matrix(0 0 0 0 0 0)">
</g>
<desc>Created with Fabric.js 4.2.0</desc>
<g id="d7715385-ddf6-49a5-a6b4-f3bde4c21c66_1_" transform="matrix(0 0 0 0 0 0)">
</g>
<path class="st0" d="M44,77.1c-8.6,0-16.9-3.3-23.1-9.2c-0.9-0.9-1.3-2.2-1-3.4c0.3-1.2,1.2-2.2,2.5-2.6s2.6,0,3.5,0.8
	c4.9,4.6,11.4,7.2,18.2,7.2c2.5,0,5-0.3,7.5-1c1.9-0.4,3.7,0.7,4.2,2.5c0.5,1.8-0.5,3.8-2.3,4.4C50.4,76.7,47.2,77.1,44,77.1z"/>
<path class="st0" d="M76.8,49.5c0.2-1.5,0.3-3.1,0.3-4.6C76.8,26.8,62,12.4,44,12.6c-12.6,0-24.2,7.1-29.9,18.4
	c-0.9,1.8-0.1,3.9,1.6,4.8c1.8,0.9,3.9,0.1,4.8-1.6C25,25.3,34.1,19.8,44,19.8c14.1-0.2,25.7,11,26,25.1c0,1.2-0.1,2.4-0.3,3.6
	c-0.1,0.9,0.1,1.9,0.7,2.7c0.6,0.8,1.4,1.3,2.4,1.4h0.6c1.8,0,3.3-1.3,3.6-3.1H76.8z"/>
<path class="st0" d="M87.2,54.5c0.2-0.9,0.3-1.8,0.2-2.7c-0.2-1.9-2-3.3-3.9-3.1c-1.9,0.3-3.3,2-3.1,3.9c-0.7,2.7-14.6,5.9-38.3,0
	C24.3,48,12,40.8,9.2,36c-0.3-0.4-0.5-0.9-0.5-1.5c0.4-1.9-0.7-3.8-2.6-4.3c-1.9-0.5-3.8,0.6-4.4,2.4c-0.6,2.4-0.2,4.9,1.2,7
	C7.3,47,22,54.8,40.4,59.4c8.6,2.2,17.4,3.4,26.3,3.6C77.3,63.2,85.6,60.7,87.2,54.5L87.2,54.5z"/>
</svg>
