<svg width="24" height="24" viewBox="0 0 24 24" fill="none" xmlns="http://www.w3.org/2000/svg">
<path d="M4.36448 4.77734H14.0358C13.05 5.35584 12.2004 6.13282 11.5346 7.05277H4.36448C4.03639 7.05277 3.76888 7.32009 3.76888 7.64824V18.5299C3.76888 18.8581 4.03634 19.1255 4.36448 19.1255H15.2462C15.5743 19.1255 15.8417 18.8581 15.8417 18.5299V11.2799C16.1165 11.1385 16.4039 11.0193 16.7009 10.9273C16.875 11.4637 17.2529 11.9207 17.7728 12.194C17.8817 12.2511 18.0001 12.2858 18.1172 12.3237V18.5299C18.1172 20.1128 16.8291 21.401 15.2462 21.401H4.36453C2.78159 21.401 1.4935 20.1128 1.4935 18.5299V7.64824C1.4935 6.06538 2.78154 4.77734 4.36448 4.77734Z" fill="#999999"/>
<path d="M18.1166 9.1735C15.7722 9.22976 13.7219 10.463 12.5427 12.3134C12.4346 12.4823 12.2494 12.58 12.0568 12.58C12.0043 12.58 11.951 12.5726 11.8991 12.5578C11.6539 12.4874 11.4835 12.2652 11.4806 12.0104C11.4806 11.9874 11.4806 11.9644 11.4806 11.9416C11.4806 8.24169 14.4375 5.23816 18.1158 5.14998V4.0745C18.1158 3.8241 18.2543 3.59522 18.475 3.47822C18.5735 3.42629 18.6817 3.40039 18.7891 3.40039C18.9232 3.40039 19.0557 3.44051 19.1698 3.51821L23.7378 6.6447C23.9014 6.75659 23.9992 6.94175 24 7.14022C24.0008 7.33801 23.9037 7.52403 23.7407 7.63729L19.1735 10.8039C19.0587 10.8838 18.9246 10.9238 18.7899 10.9238C18.6825 10.9238 18.5758 10.8986 18.4772 10.8474C18.2559 10.7312 18.1166 10.5009 18.1166 10.2505V9.1735Z" fill="#999999"/>
</svg>
