<svg width="107" height="92" viewBox="0 0 107 92" fill="none" xmlns="http://www.w3.org/2000/svg">
<path fill-rule="evenodd" clip-rule="evenodd" d="M51.3756 25.525C51.3756 13.4672 61.2896 3 73.9006 3C86.0228 3 96.4256 13.4028 96.4256 25.525C96.4256 37.5828 86.5117 48.05 73.9006 48.05C60.8002 48.05 51.3756 37.5169 51.3756 25.525ZM73.9006 11.5C66.1117 11.5 59.8756 18.0328 59.8756 25.525C59.8756 33.0831 65.751 39.55 73.9006 39.55C81.6896 39.55 87.9256 33.0172 87.9256 25.525C87.9256 18.0972 81.3284 11.5 73.9006 11.5ZM44.7448 6.22259C45.5469 8.42848 44.4089 10.867 42.203 11.6691C37.1316 13.5133 33.107 17.7254 31.2195 22.8024L33.464 21.4557C35.4767 20.248 38.0874 20.9007 39.295 22.9134C40.5026 24.9261 39.85 27.5367 37.8372 28.7443L28.6979 34.2279C28.3075 34.5752 27.8513 34.8525 27.3477 35.0381L25.0872 36.3943C23.0745 37.602 20.4639 36.9493 19.2563 34.9366L11.6063 22.1866C10.3987 20.1739 11.0513 17.5633 13.064 16.3557C15.0768 15.148 17.6874 15.8007 18.895 17.8134L22.2099 23.3383C24.223 14.4392 30.675 6.81658 39.2982 3.68088C41.5041 2.87873 43.9426 4.0167 44.7448 6.22259ZM11.4256 65.05C11.4256 52.5028 21.8284 42.1 34.3756 42.1C46.9228 42.1 57.3256 52.5028 57.3256 65.05C57.3256 77.5972 46.9228 88 34.3756 88C21.3406 88 11.4256 77.5339 11.4256 65.05ZM34.3756 50.6C26.5228 50.6 19.9256 57.1972 19.9256 65.05C19.9256 72.9661 26.1607 79.5 34.3756 79.5C42.2284 79.5 48.8256 72.9028 48.8256 65.05C48.8256 57.1972 42.2284 50.6 34.3756 50.6ZM81.914 54.6057C83.9267 53.398 86.5373 54.0507 87.745 56.0634L95.395 68.8134C96.6026 70.8261 95.9499 73.4367 93.9372 74.6443C91.9245 75.852 89.3139 75.1993 88.1063 73.1866L84.7914 67.6617C82.7783 76.5608 76.3262 84.1834 67.703 87.3191C65.4972 88.1213 63.0587 86.9833 62.2565 84.7774C61.4544 82.5715 62.5923 80.133 64.7982 79.3309C69.8697 77.4867 73.8942 73.2746 75.7818 68.1976L73.5372 69.5443C71.5245 70.752 68.9139 70.0993 67.7063 68.0866C66.4987 66.0739 67.1513 63.4633 69.164 62.2557L78.3033 56.7721C78.6938 56.4248 79.15 56.1475 79.6535 55.9619L81.914 54.6057Z" fill="white"/>
</svg>
