<?xml version="1.0" encoding="utf-8"?>
<!-- Generator: Adobe Illustrator 25.0.1, SVG Export Plug-In . SVG Version: 6.00 Build 0)  -->
<svg version="1.1" id="Layer_1" xmlns="http://www.w3.org/2000/svg" xmlns:xlink="http://www.w3.org/1999/xlink" x="0px" y="0px"
	 viewBox="0 0 109 110" style="enable-background:new 0 0 109 110;" xml:space="preserve">
<style type="text/css">
	.st0{fill:#FFFFFF;}
</style>
<path class="st0" d="M75.2,81.1c-4.6,0-8.4-3.7-8.4-8.4v-3c0-2.3,1.9-4.2,4.2-4.2c2.3,0,4.2,1.9,4.2,4.2v3l11.5-2.9
	c0.8-0.2,1.6-0.2,2.3,0l7,2.3V61.4c0-2.3-1.9-4.2-4.2-4.2h-38c-2,12-12.5,20.9-24.7,20.9C15.5,77.9,4.4,66.8,4.2,53
	c0-9.5,5.4-18.2,13.9-22.4c8.5-4.2,18.7-3.3,26.2,2.4c1.8,1.4,2.2,4,0.8,5.8c-1.4,1.8-4,2.2-5.8,0.8c-5.1-3.8-11.8-4.4-17.5-1.6
	c-5.7,2.8-9.2,8.6-9.2,14.9c0.1,9.2,7.5,16.6,16.7,16.7c8.2,0,15.1-5.9,16.5-13.9c0.7-4.1,4.2-7,8.4-7h37.8
	c6.9,0,12.5,5.6,12.5,12.5v10.9c0,2.7-1.3,5.2-3.5,6.8c-2.2,1.6-5,2-7.5,1.2l-5.7-2.1l-10.4,2.6C76.7,80.9,75.9,81.1,75.2,81.1z"/>
</svg>
