<svg width="48" height="48" viewBox="0 0 48 48" fill="none" xmlns="http://www.w3.org/2000/svg">
<g clip-path="url(#clip0_7310_295)">
<path d="M0 19.2C0 12.4794 0 9.11905 1.30792 6.55211C2.4584 4.29417 4.29417 2.4584 6.55211 1.30792C9.11905 0 12.4794 0 19.2 0H28.7999C35.5205 0 38.8808 0 41.4478 1.30792C43.7057 2.4584 45.5415 4.29417 46.692 6.55211C47.9999 9.11905 47.9999 12.4794 47.9999 19.2V28.7999C47.9999 35.5205 47.9999 38.8808 46.692 41.4478C45.5415 43.7057 43.7057 45.5415 41.4478 46.692C38.8808 47.9999 35.5205 47.9999 28.7999 47.9999H19.2C12.4794 47.9999 9.11905 47.9999 6.55211 46.692C4.29417 45.5415 2.4584 43.7057 1.30792 41.4478C0 38.8808 0 35.5205 0 28.7999V19.2Z" fill="url(#paint0_linear_7310_295)"/>
<g filter="url(#filter0_f_7310_295)">
<path fill-rule="evenodd" clip-rule="evenodd" d="M26.1117 29.4295C25.7195 29.8814 25.4017 30.3929 25.1708 30.9453C24.8831 31.634 24.7363 32.3725 24.7392 33.1179C24.7399 33.4355 24.7673 33.7525 24.8208 34.0655C24.343 33.3615 24.0639 32.5401 24.0213 31.6853C23.9631 30.5148 24.3525 29.3649 25.114 28.459L26.1117 29.4295Z" fill="#0B0B0F" fill-opacity="0.15"/>
</g>
<path d="M29.7106 31C28.4948 31 27.5094 30.0144 27.5094 28.7988V28.0062C27.5094 27.3984 28.002 26.9056 28.61 26.9056C29.2178 26.9056 29.7106 27.3984 29.7106 28.0062V28.7988L32.7483 28.0393C32.9496 27.9805 33.1634 27.9805 33.3647 28.0393L35.2138 28.6557V25.8049C35.2138 25.1972 34.721 24.7044 34.1131 24.7044H24.1085C23.5718 27.8793 20.8236 30.2042 17.6037 30.2076C13.9764 30.16 11.0474 27.2312 11 23.6038C11 21.1024 12.4132 18.8158 14.6505 17.6972C16.8877 16.5786 19.5649 16.82 21.566 18.3208C22.0522 18.6855 22.1508 19.3754 21.7861 19.8617C21.4213 20.3479 20.7315 20.4465 20.2453 20.0817C18.9112 19.0813 17.1264 18.9204 15.6349 19.666C14.1434 20.4118 13.2012 21.9362 13.2012 23.6038C13.2309 26.0227 15.1847 27.9765 17.6037 28.0062C19.7533 28.0097 21.5911 26.4605 21.9512 24.3412C22.1304 23.269 23.0655 22.4883 24.1525 22.5031H34.1131C35.9366 22.5031 37.415 23.9814 37.415 25.8049V28.6776C37.4156 29.385 37.0762 30.0497 36.5028 30.464C35.9294 30.8783 35.1917 30.9916 34.5203 30.7688L33.0124 30.2076L30.2829 30.8898C30.0978 30.9518 29.9054 30.9888 29.7106 31Z" fill="white"/>
</g>
<defs>
<filter id="filter0_f_7310_295" x="23.6621" y="28.1054" width="2.80085" height="6.31354" filterUnits="userSpaceOnUse" color-interpolation-filters="sRGB">
<feFlood flood-opacity="0" result="BackgroundImageFix"/>
<feBlend mode="normal" in="SourceGraphic" in2="BackgroundImageFix" result="shape"/>
<feGaussianBlur stdDeviation="0.176774" result="effect1_foregroundBlur_7310_295"/>
</filter>
<linearGradient id="paint0_linear_7310_295" x1="10.8811" y1="1.58211" x2="34.5831" y2="47.1715" gradientUnits="userSpaceOnUse">
<stop stop-color="#33343B"/>
<stop offset="1" stop-color="#18191E"/>
</linearGradient>
<clipPath id="clip0_7310_295">
<rect width="48" height="48" fill="white"/>
</clipPath>
</defs>
</svg>
