<?xml version="1.0" encoding="utf-8"?>
<!-- Generator: Adobe Illustrator 25.0.1, SVG Export Plug-In . SVG Version: 6.00 Build 0)  -->
<svg version="1.1" id="Layer_1" xmlns="http://www.w3.org/2000/svg" xmlns:xlink="http://www.w3.org/1999/xlink" x="0px" y="0px"
	 viewBox="0 0 117 116" style="enable-background:new 0 0 117 116;" xml:space="preserve">
<style type="text/css">
	.st0{fill:#FFFFFF;}
</style>
<desc>Created with Fabric.js 4.2.0</desc>
<g id="d7715385-ddf6-49a5-a6b4-f3bde4c21c66" transform="matrix(0 0 0 0 0 0)">
</g>
<desc>Created with Fabric.js 4.2.0</desc>
<g id="d7715385-ddf6-49a5-a6b4-f3bde4c21c66_1_" transform="matrix(0 0 0 0 0 0)">
</g>
<desc>Created with Fabric.js 4.2.0</desc>
<g id="d7715385-ddf6-49a5-a6b4-f3bde4c21c66_2_" transform="matrix(0 0 0 0 0 0)">
</g>
<desc>Created with Fabric.js 4.2.0</desc>
<g id="_x39_bac2a5c-ed47-40cb-a207-6b06d95ebeff" transform="matrix(Infinity NaN NaN Infinity 0 0)">
</g>
<path class="st0" d="M66.8,84.9c-2.6,0-4.7-2.1-4.7-4.7c0-2.6,2.1-4.7,4.7-4.7c1,0,1.9-0.4,2.6-1.1c0.7-0.7,1.1-1.6,1.1-2.6v-0.7
	c-0.1-7.7,2.3-15.2,7-21.2c6.3-7.9,7.1-18.8,2-27.5c-5.1-8.7-15-13.3-25-11.7c-9.9,1.7-17.8,9.3-19.8,19.2c-1.3,6.9,0.4,14,4.7,19.6
	c4.8,6.2,7.4,13.8,7.4,21.6V72c0,2,1.6,3.6,3.6,3.6c2.6,0,4.7,2.1,4.7,4.7c0,2.6-2.1,4.7-4.7,4.7c-7.1,0-12.9-5.8-12.9-12.9v-0.7
	c0-5.8-1.9-11.4-5.4-16C21.2,41.4,23,21.6,36,9.9C49-1.9,68.9-1.7,81.7,10.4c12.7,12.1,14.1,31.9,3.1,45.5
	c-3.3,4.4-5.1,9.8-4.9,15.4V72c0,3.4-1.4,6.7-3.8,9.2C73.5,83.6,70.2,85,66.8,84.9z"/>
<path class="st0" d="M72.5,94.3c0-2.6-2.1-4.7-4.7-4.7H49.2c-2.6,0-4.7,2.1-4.7,4.7c0,2.6,2.1,4.7,4.7,4.7h18.6
	C70.4,98.9,72.5,96.8,72.5,94.3z"/>
<path class="st0" d="M67.8,108.2c0-2.6-2.1-4.7-4.7-4.7h-9.3c-2.6,0-4.7,2.1-4.7,4.7s2.1,4.7,4.7,4.7h9.3
	C65.7,112.9,67.8,110.8,67.8,108.2z"/>
</svg>
