<?xml version="1.0" encoding="utf-8"?>
<!-- Generator: Adobe Illustrator 25.0.1, SVG Export Plug-In . SVG Version: 6.00 Build 0)  -->
<svg version="1.1" id="Layer_1" xmlns="http://www.w3.org/2000/svg" xmlns:xlink="http://www.w3.org/1999/xlink" x="0px" y="0px"
	 viewBox="0 0 117 116" style="enable-background:new 0 0 117 116;" xml:space="preserve">
<style type="text/css">
	.st0{fill:#27043C;}
</style>
<g id="d7715385-ddf6-49a5-a6b4-f3bde4c21c66" transform="matrix(0 0 0 0 0 0)">
</g>
<path class="st0" d="M66.3,85.9c-2.6,0-4.7-2.1-4.7-4.7c0-2.6,2.1-4.7,4.7-4.7c1,0,1.9-0.4,2.6-1.1c0.7-0.7,1.1-1.6,1.1-2.6v-0.7
	c-0.1-7.7,2.3-15.2,7-21.2c6.3-7.9,7.1-18.8,2-27.5c-5.1-8.7-15-13.3-25-11.7C44,13.5,36.2,21.1,34.2,31c-1.3,6.9,0.4,14,4.7,19.6
	c4.8,6.2,7.4,13.8,7.4,21.6V73c0,2,1.6,3.6,3.6,3.6c2.6,0,4.7,2.1,4.7,4.7c0,2.6-2.1,4.7-4.7,4.7c-7.1,0-12.9-5.8-12.9-12.9v-0.7
	c0-5.8-1.9-11.4-5.4-16c-10.7-13.9-8.9-33.7,4.1-45.4c13-11.8,32.9-11.5,45.6,0.5c12.7,12.1,14.1,31.9,3.1,45.5
	c-3.3,4.4-5.1,9.8-4.9,15.4V73c0,3.4-1.4,6.7-3.8,9.2C73.1,84.6,69.8,85.9,66.3,85.9z"/>
<path class="st0" d="M72,95.2c0-2.6-2.1-4.7-4.7-4.7H48.7c-2.6,0-4.7,2.1-4.7,4.7c0,2.6,2.1,4.7,4.7,4.7h18.6
	C69.9,99.9,72,97.8,72,95.2z"/>
<path class="st0" d="M67.3,109.2c0-2.6-2.1-4.7-4.7-4.7h-9.3c-2.6,0-4.7,2.1-4.7,4.7s2.1,4.7,4.7,4.7h9.3
	C65.3,113.8,67.3,111.7,67.3,109.2z"/>
</svg>
