<svg width="95" height="24" viewBox="0 0 95 24" fill="none" xmlns="http://www.w3.org/2000/svg">
<g clip-path="url(#clip0_7305_366)">
<path d="M0.0684444 9.27937C0.0294444 5.77837 -0.0835556 4.56837 0.824444 3.11937C2.29444 0.77437 3.89544 0.31237 5.03144 0.13837C6.54544 -0.0926303 16.2114 0.0353698 17.5404 0.0353698C20.4884 -0.000630245 22.4714 1.86637 22.4714 1.86637C24.2184 3.79337 24.2184 5.83637 24.2184 5.83637V14.7024C24.2184 17.9374 24.1604 18.1114 24.1604 18.1114C24.1604 18.1114 24.1604 20.6554 21.8894 22.6014C20.2574 24.0004 18.6814 24.0724 15.0594 23.9694H9.50044C6.52744 23.8984 5.40144 24.2644 3.24544 23.1664C1.17244 22.1094 0.354444 20.6024 0.0684444 18.2074C-0.0855556 16.9144 0.0684444 17.9614 0.0684444 14.7264V9.27937Z" fill="url(#paint0_linear_7305_366)"/>
<path d="M9.92532 7.40331L9.12532 7.94331C9.06232 8.00631 9.04232 8.04631 9.12532 8.10431L9.20332 8.16731L10.2703 8.91231C10.2703 8.91231 11.3293 8.33731 11.5553 8.24031C11.9533 8.06131 12.3853 7.97031 12.8213 7.97231C13.1173 7.99231 13.4103 8.03631 13.6983 8.10531C14.0663 8.21131 14.4153 8.37631 14.7313 8.59231L15.0323 8.79231C15.0433 8.80331 15.0563 8.81231 15.0713 8.81931C15.0863 8.82531 15.1023 8.82931 15.1183 8.82931C15.1343 8.82931 15.1503 8.82631 15.1653 8.81931C15.1793 8.81331 15.1933 8.80431 15.2043 8.79231C15.2163 8.78331 15.2263 8.77131 15.2333 8.75831C15.3003 8.65331 15.3543 8.54031 15.3923 8.42231C15.4173 8.32831 15.4303 8.23131 15.4313 8.13431C15.4313 7.99531 15.4033 7.85731 15.3483 7.73031C15.2933 7.60331 15.2123 7.48831 15.1113 7.39331L14.9063 7.21331C14.6593 6.97531 14.3763 6.77831 14.0673 6.63131L13.8323 6.51331C13.4193 6.35731 12.9813 6.27831 12.5403 6.27931C12.0583 6.29631 11.2473 6.51331 9.92732 7.40231L9.92532 7.40331Z" fill="#FCFCFC"/>
<g opacity="0.9">
<path d="M6.7865 9.90495C6.7795 9.98695 6.7795 10.07 6.7865 10.152C6.8265 10.35 6.9365 10.526 7.0965 10.65L7.3875 10.883C8.9075 12.018 10.4795 13.104 12.0325 14.177L12.2675 14.312C12.3695 14.366 12.4815 14.399 12.5965 14.41H12.6335C12.8185 14.41 12.9985 14.349 13.1455 14.238L14.5865 13.232C15.0555 12.883 15.5625 12.538 16.0265 12.176C16.1795 12.055 16.3215 11.921 16.4525 11.775C16.8115 11.358 17.0365 10.844 17.0985 10.299C17.0985 10.122 17.1215 9.92195 17.1215 9.71195V8.66395C17.1235 8.64395 17.1235 8.62295 17.1215 8.60295V8.62195C17.1175 8.82895 17.0825 9.03495 17.0185 9.23195C16.8345 9.79295 16.4755 10.282 15.9945 10.628C15.0835 11.284 14.1695 11.941 13.2355 12.574L13.0225 12.695C12.9195 12.747 12.8055 12.774 12.6895 12.774H12.6335C12.5765 12.772 12.5205 12.763 12.4655 12.748C12.4225 12.737 12.3815 12.72 12.3425 12.699L12.0095 12.502C10.8925 11.742 9.7855 10.965 8.6895 10.174L7.2485 9.09195L7.0375 8.89495C6.9445 8.80095 6.8825 8.68095 6.8605 8.55195V8.50195C6.8455 8.50195 6.7885 9.90395 6.7885 9.90395L6.7865 9.90495Z" fill="url(#paint1_radial_7305_366)"/>
</g>
<path d="M17.0189 12.8037C17.0349 12.7547 17.0579 12.6837 17.0819 12.6147V13.5487C17.0819 13.7267 17.0679 13.9047 17.0399 14.0797C16.9489 14.6907 16.6389 15.2487 16.1669 15.6527L15.7409 16.0007C15.2539 16.3627 14.7529 16.7117 14.2459 17.0607L13.1589 17.8087L13.0629 17.8637C12.9419 17.9407 12.7999 17.9817 12.6559 17.9807C12.5709 17.9807 12.4869 17.9667 12.4069 17.9377C12.2919 17.8987 12.1839 17.8437 12.0859 17.7737L8.80287 15.4977L7.17988 14.2967C7.08588 14.2307 7.00688 14.1467 6.94688 14.0497C6.88688 13.9537 6.84788 13.8467 6.83187 13.7357C6.82688 13.6697 6.82688 13.6047 6.83187 13.5387V12.4297C6.85087 12.4717 6.87388 12.5127 6.90188 12.5497C6.97888 12.6407 7.06688 12.7197 7.16488 12.7877L8.22888 13.5787C9.24888 14.3277 10.2849 15.0547 11.3369 15.7597L12.0169 16.2247L12.3079 16.3777H12.3139C12.4329 16.4237 12.5609 16.4417 12.6879 16.4307C12.8149 16.4197 12.9369 16.3787 13.0459 16.3137L13.1819 16.2397H13.1839L15.9049 14.3127C16.1419 14.1437 16.3529 13.9407 16.5309 13.7107C16.7469 13.4397 16.9119 13.1327 17.0169 12.8037H17.0189Z" fill="url(#paint2_radial_7305_366)"/>
<g opacity="0.9">
<g opacity="0.9">
<path d="M17.0189 12.8037C17.0349 12.7547 17.0579 12.6837 17.0819 12.6147V13.5487C17.0819 13.7267 17.0679 13.9047 17.0399 14.0797C16.9489 14.6907 16.6389 15.2487 16.1669 15.6527L15.7409 16.0007C15.2539 16.3627 14.7529 16.7117 14.2459 17.0607L13.1589 17.8087L13.0629 17.8637C12.9419 17.9407 12.7999 17.9817 12.6559 17.9807C12.5709 17.9807 12.4869 17.9667 12.4069 17.9377C12.2919 17.8987 12.1839 17.8437 12.0859 17.7737L8.80288 15.4977L7.17987 14.2967C7.08587 14.2307 7.00687 14.1467 6.94687 14.0497C6.88687 13.9537 6.84788 13.8467 6.83187 13.7357C6.82688 13.6697 6.82688 13.6047 6.83187 13.5387V12.4297C6.85087 12.4717 6.87387 12.5127 6.90187 12.5497C6.97887 12.6407 7.06687 12.7197 7.16487 12.7877L8.22887 13.5787C9.24887 14.3277 10.2849 15.0547 11.3369 15.7597L12.0169 16.2247L12.3079 16.3777H12.3139C12.4329 16.4237 12.5609 16.4417 12.6879 16.4307C12.8149 16.4197 12.9369 16.3787 13.0459 16.3137L13.1819 16.2397H13.1839L15.9049 14.3127C16.1419 14.1437 16.3529 13.9407 16.5309 13.7107C16.7469 13.4397 16.9119 13.1327 17.0169 12.8037H17.0189Z" fill="url(#paint3_radial_7305_366)"/>
</g>
</g>
<path d="M9.92532 7.40331L9.12532 7.94331C9.06232 8.00631 9.04232 8.04631 9.12532 8.10431L9.20332 8.16731L10.2703 8.91231C10.2703 8.91231 11.3293 8.33731 11.5553 8.24031C11.9533 8.06131 12.3853 7.97031 12.8213 7.97231C13.1173 7.99231 13.4103 8.03631 13.6983 8.10531C14.0663 8.21131 14.4153 8.37631 14.7313 8.59231L15.0323 8.79231C15.0433 8.80331 15.0563 8.81231 15.0713 8.81931C15.0863 8.82531 15.1023 8.82931 15.1183 8.82931C15.1343 8.82931 15.1503 8.82631 15.1653 8.81931C15.1793 8.81331 15.1933 8.80431 15.2043 8.79231C15.2163 8.78331 15.2263 8.77131 15.2333 8.75831C15.3003 8.65331 15.3543 8.54031 15.3923 8.42231C15.4173 8.32831 15.4303 8.23131 15.4313 8.13431C15.4313 7.99531 15.4033 7.85731 15.3483 7.73031C15.2933 7.60331 15.2123 7.48831 15.1113 7.39331L14.9063 7.21331C14.6593 6.97531 14.3763 6.77831 14.0673 6.63131L13.8323 6.51331C13.4193 6.35731 12.9813 6.27831 12.5403 6.27931C12.0583 6.29631 11.2473 6.51331 9.92732 7.40231L9.92532 7.40331Z" fill="white"/>
<g opacity="0.9">
<path d="M6.7865 9.90495C6.7795 9.98695 6.7795 10.07 6.7865 10.152C6.8265 10.35 6.9365 10.526 7.0965 10.65L7.3875 10.883C8.9075 12.018 10.4795 13.104 12.0325 14.177L12.2675 14.312C12.3695 14.366 12.4815 14.399 12.5965 14.41H12.6335C12.8185 14.41 12.9985 14.349 13.1455 14.238L14.5865 13.232C15.0555 12.883 15.5625 12.538 16.0265 12.176C16.1795 12.055 16.3215 11.921 16.4525 11.775C16.8115 11.358 17.0365 10.844 17.0985 10.299C17.0985 10.122 17.1215 9.92195 17.1215 9.71195V8.66395C17.1235 8.64395 17.1235 8.62295 17.1215 8.60295V8.62195C17.1175 8.82895 17.0825 9.03495 17.0185 9.23195C16.8345 9.79295 16.4755 10.282 15.9945 10.628C15.0835 11.284 14.1695 11.941 13.2355 12.574L13.0225 12.695C12.9195 12.747 12.8055 12.774 12.6895 12.774H12.6335C12.5765 12.772 12.5205 12.763 12.4655 12.748C12.4225 12.737 12.3815 12.72 12.3425 12.699L12.0095 12.502C10.8925 11.742 9.7855 10.965 8.6895 10.174L7.2485 9.09195L7.0375 8.89495C6.9445 8.80095 6.8825 8.68095 6.8605 8.55195V8.50195C6.8455 8.50195 6.7885 9.90395 6.7885 9.90395L6.7865 9.90495Z" fill="white"/>
</g>
<path d="M17.0189 12.8037C17.0349 12.7547 17.0579 12.6837 17.0819 12.6147V13.5487C17.0819 13.7267 17.0679 13.9047 17.0399 14.0797C16.9489 14.6907 16.6389 15.2487 16.1669 15.6527L15.7409 16.0007C15.2539 16.3627 14.7529 16.7117 14.2459 17.0607L13.1589 17.8087L13.0629 17.8637C12.9419 17.9407 12.7999 17.9817 12.6559 17.9807C12.5709 17.9807 12.4869 17.9667 12.4069 17.9377C12.2919 17.8987 12.1839 17.8437 12.0859 17.7737L8.80287 15.4977L7.17988 14.2967C7.08588 14.2307 7.00688 14.1467 6.94688 14.0497C6.88688 13.9537 6.84788 13.8467 6.83187 13.7357C6.82688 13.6697 6.82688 13.6047 6.83187 13.5387V12.4297C6.85087 12.4717 6.87388 12.5127 6.90188 12.5497C6.97888 12.6407 7.06688 12.7197 7.16488 12.7877L8.22888 13.5787C9.24888 14.3277 10.2849 15.0547 11.3369 15.7597L12.0169 16.2247L12.3079 16.3777H12.3139C12.4329 16.4237 12.5609 16.4417 12.6879 16.4307C12.8149 16.4197 12.9369 16.3787 13.0459 16.3137L13.1819 16.2397H13.1839L15.9049 14.3127C16.1419 14.1437 16.3529 13.9407 16.5309 13.7107C16.7469 13.4397 16.9119 13.1327 17.0169 12.8037H17.0189Z" fill="url(#paint4_radial_7305_366)"/>
<g opacity="0.9">
<g opacity="0.9">
<path d="M17.0189 12.8037C17.0349 12.7547 17.0579 12.6837 17.0819 12.6147V13.5487C17.0819 13.7267 17.0679 13.9047 17.0399 14.0797C16.9489 14.6907 16.6389 15.2487 16.1669 15.6527L15.7409 16.0007C15.2539 16.3627 14.7529 16.7117 14.2459 17.0607L13.1589 17.8087L13.0629 17.8637C12.9419 17.9407 12.7999 17.9817 12.6559 17.9807C12.5709 17.9807 12.4869 17.9667 12.4069 17.9377C12.2919 17.8987 12.1839 17.8437 12.0859 17.7737L8.80288 15.4977L7.17987 14.2967C7.08587 14.2307 7.00687 14.1467 6.94687 14.0497C6.88687 13.9537 6.84788 13.8467 6.83187 13.7357C6.82688 13.6697 6.82688 13.6047 6.83187 13.5387V12.4297C6.85087 12.4717 6.87387 12.5127 6.90187 12.5497C6.97887 12.6407 7.06687 12.7197 7.16487 12.7877L8.22887 13.5787C9.24887 14.3277 10.2849 15.0547 11.3369 15.7597L12.0169 16.2247L12.3079 16.3777H12.3139C12.4329 16.4237 12.5609 16.4417 12.6879 16.4307C12.8149 16.4197 12.9369 16.3787 13.0459 16.3137L13.1819 16.2397H13.1839L15.9049 14.3127C16.1419 14.1437 16.3529 13.9407 16.5309 13.7107C16.7469 13.4397 16.9119 13.1327 17.0169 12.8037H17.0189Z" fill="url(#paint5_radial_7305_366)"/>
</g>
</g>
<path d="M41.8052 12.5311C41.4972 11.3211 41.2992 9.73708 41.2552 9.27408H41.1452C41.0792 9.71408 40.9033 11.1001 40.5513 12.5521L38.7912 19.7471H35.5353L32.6082 7.00708C32.3442 5.86308 32.0142 5.59908 31.1562 5.48908V4.45508H37.3613V5.48908C36.4813 5.51108 36.0853 5.79708 36.0853 6.36908C36.0853 6.50108 36.0852 6.61108 36.1292 6.76508L37.4272 13.1451C37.7132 14.5531 37.8452 16.2491 37.8672 16.7101H37.9772C38.0432 16.3361 38.2192 14.9281 38.6372 13.1451L40.7052 4.45508H43.0382L45.2383 13.1021C45.6783 14.8621 45.9203 16.1821 45.9863 16.6881H46.1183C46.1403 16.2701 46.2722 14.8401 46.6242 13.1241L47.9002 6.91908C47.9442 6.69908 47.9663 6.54408 47.9663 6.39108C47.9663 5.70908 47.4822 5.51108 46.6242 5.48908V4.45508H51.4212V5.48908C50.5192 5.59908 50.1232 5.86308 49.8592 7.00708L46.8893 19.7471H43.6553L41.8063 12.5301L41.8052 12.5311Z" fill="white"/>
<path d="M62.3102 18.4057V19.3507C61.8482 19.6367 61.0342 19.8787 60.0662 19.8787C58.7022 19.8787 57.9762 19.2627 57.7992 18.3387C57.4252 19.1307 56.4792 20.0547 54.7402 20.0547C52.7822 20.0547 51.2422 19.0657 51.2422 16.7987C51.2422 14.2017 53.2002 13.1237 56.6552 13.1237C56.9192 13.1237 57.4252 13.1447 57.7112 13.1677V12.1557C57.7112 10.4617 57.2932 9.73572 56.1272 9.73572C54.8732 9.73572 54.5212 10.5717 54.3672 11.7377H51.9472V9.49372C53.1132 8.81172 54.9172 8.26172 56.6992 8.26172C59.2292 8.26172 60.9902 9.38472 60.9902 11.9587C60.9902 12.6187 60.9022 14.4447 60.9022 16.4467C60.9022 18.0967 61.1442 18.3617 62.3102 18.4057V18.4057ZM56.8972 14.4007C55.4002 14.4007 54.6082 15.0387 54.6082 16.3807C54.6082 17.6347 55.0922 18.0087 55.9282 18.0087C56.5002 18.0087 57.2042 17.7007 57.6002 17.1947L57.6662 14.4007H56.8962H56.8972Z" fill="white"/>
<path d="M67.4366 17.1947C67.4366 18.4497 67.6556 18.7357 68.7996 18.7567V19.7467H62.8146V18.7567C63.9366 18.7357 64.1786 18.4707 64.1786 17.2167V7.02966C64.1786 5.42366 63.8486 5.20366 62.7266 5.15966V4.19166L66.7096 3.59766H67.0396C67.1486 3.81766 67.4356 4.45566 67.4356 5.77566V17.1947H67.4366Z" fill="white"/>
<path d="M74.0762 17.1947C74.0762 18.4497 74.2952 18.7357 75.4392 18.7567V19.7467H69.4552V18.7567C70.5762 18.7357 70.8182 18.4707 70.8182 17.2167V7.02966C70.8182 5.42366 70.4882 5.20366 69.3672 5.15966V4.19166L73.3492 3.59766H73.6792C73.7882 3.81766 74.0752 4.45566 74.0752 5.77566V17.1947H74.0762Z" fill="white"/>
<path d="M85.8971 17.3487L86.4241 18.2507C85.2361 19.4167 83.7851 20.0107 81.8261 20.0107C78.4161 20.0107 76.4141 17.8547 76.4141 14.1147C76.4141 10.3957 78.5701 8.26172 81.7601 8.26172C85.2151 8.26172 86.6231 10.3077 86.6231 13.6757V14.6207H79.9341C80.0221 17.1067 80.8581 18.1197 82.9711 18.1197C83.8951 18.1197 84.9511 17.8547 85.8971 17.3487ZM79.9561 13.1237H83.3661C83.3661 10.4617 82.9271 9.62472 81.7821 9.62472C80.6611 9.62472 80.1101 10.4387 79.9561 13.1237Z" fill="white"/>
<path d="M94.2766 10.2205H91.9896V16.1395C91.9896 17.7675 92.1436 18.3625 93.2436 18.3625C93.6396 18.3625 93.9916 18.2965 94.4976 18.0975L94.8276 19.2425C93.9916 19.7705 93.0446 20.0345 91.8356 20.0345C89.8336 20.0345 88.7106 19.2865 88.7106 16.8655V10.2205H87.3906V9.09845L88.8656 8.50445C88.9986 7.51445 89.3286 6.43645 89.8776 5.60045L92.1666 5.31445C92.0576 6.10645 91.9676 7.42645 91.9676 8.54845H94.6316L94.2776 10.2205H94.2766Z" fill="white"/>
</g>
<defs>
<linearGradient id="paint0_linear_7305_366" x1="3.63644" y1="0.36337" x2="20.2714" y2="23.2604" gradientUnits="userSpaceOnUse">
<stop stop-color="#474853"/>
<stop offset="1" stop-color="#474B57"/>
</linearGradient>
<radialGradient id="paint1_radial_7305_366" cx="0" cy="0" r="1" gradientUnits="userSpaceOnUse" gradientTransform="translate(10.3832 1.8666) rotate(54.83) scale(17.7294 32.0281)">
<stop stop-color="white"/>
<stop offset="1" stop-color="white" stop-opacity="0.4"/>
</radialGradient>
<radialGradient id="paint2_radial_7305_366" cx="0" cy="0" r="1" gradientUnits="userSpaceOnUse" gradientTransform="translate(19.5607 7.98026) rotate(127.07) scale(12.5615 23.074)">
<stop/>
<stop offset="1" stop-color="#0F1010"/>
</radialGradient>
<radialGradient id="paint3_radial_7305_366" cx="0" cy="0" r="1" gradientUnits="userSpaceOnUse" gradientTransform="translate(10.9502 6.5705) rotate(53.368) scale(16.969 31.1733)">
<stop/>
<stop offset="1" stop-opacity="0.93"/>
</radialGradient>
<radialGradient id="paint4_radial_7305_366" cx="0" cy="0" r="1" gradientUnits="userSpaceOnUse" gradientTransform="translate(19.5607 7.98026) rotate(127.07) scale(12.5615 23.074)">
<stop stop-color="#F1F6FB"/>
<stop offset="1" stop-color="#E5F4F5" stop-opacity="0.31"/>
</radialGradient>
<radialGradient id="paint5_radial_7305_366" cx="0" cy="0" r="1" gradientUnits="userSpaceOnUse" gradientTransform="translate(10.5915 6.34038) rotate(53.368) scale(16.969 1.62559)">
<stop stop-color="white"/>
<stop offset="1" stop-color="white"/>
</radialGradient>
<clipPath id="clip0_7305_366">
<rect width="94.829" height="24" fill="white"/>
</clipPath>
</defs>
</svg>
