<svg width="48" height="48" viewBox="0 0 48 48" fill="none" xmlns="http://www.w3.org/2000/svg">
<g clip-path="url(#clip0_7441_295)">
<path d="M0 19.2C0 12.4794 0 9.11905 1.30792 6.55211C2.4584 4.29417 4.29417 2.4584 6.55211 1.30792C9.11905 0 12.4794 0 19.2 0H28.7999C35.5205 0 38.8808 0 41.4478 1.30792C43.7057 2.4584 45.5415 4.29417 46.692 6.55211C47.9999 9.11905 47.9999 12.4794 47.9999 19.2V28.7999C47.9999 35.5205 47.9999 38.8808 46.692 41.4478C45.5415 43.7057 43.7057 45.5415 41.4478 46.692C38.8808 47.9999 35.5205 47.9999 28.7999 47.9999H19.2C12.4794 47.9999 9.11905 47.9999 6.55211 46.692C4.29417 45.5415 2.4584 43.7057 1.30792 41.4478C0 38.8808 0 35.5205 0 28.7999V19.2Z" fill="url(#paint0_linear_7441_295)"/>
<path d="M14.4708 21.1582C12.729 21.1582 11.3125 22.5747 11.3125 24.3165C11.3125 24.7524 11.6663 25.1062 12.1021 25.1062C12.538 25.1062 12.8917 24.7524 12.8917 24.3165C12.8917 23.4464 13.6008 22.7374 14.4708 22.7374C14.9067 22.7374 15.2605 22.3837 15.2605 21.9478C15.2605 21.512 14.9067 21.1582 14.4708 21.1582Z" fill="white" fill-opacity="0.53"/>
<path d="M33.4318 21.1582C31.6899 21.1582 30.2734 22.5747 30.2734 24.3165C30.2734 24.7524 30.6272 25.1062 31.063 25.1062C31.4989 25.1062 31.8526 24.7524 31.8526 24.3165C31.8526 23.4464 32.5617 22.7374 33.4318 22.7374C33.8676 22.7374 34.2214 22.3837 34.2214 21.9478C34.2214 21.512 33.8676 21.1582 33.4318 21.1582Z" fill="white" fill-opacity="0.53"/>
<path d="M42.1102 21.1583H40.5311C40.2327 21.1583 39.9594 21.3273 39.8252 21.5941L39.4162 22.4121C38.603 19.8634 36.2406 18 33.4249 18C30.6803 18 28.3637 19.7686 27.4936 22.2179C26.6329 21.5689 25.3822 21.1583 23.9499 21.1583C22.5177 21.1583 21.267 21.5689 20.4063 22.2179C19.5361 19.7686 17.2195 18 14.475 18C11.6593 18 9.2969 19.8634 8.4836 22.4121L8.07463 21.5941C7.94042 21.3273 7.6672 21.1583 7.36874 21.1583H5.7896C5.35376 21.1583 5 21.512 5 21.9479V23.527C5 23.9629 5.35376 24.3166 5.7896 24.3166C6.22545 24.3166 6.57921 23.9629 6.57921 23.527V22.7374H6.88085L7.45254 23.8807C7.58674 24.1475 7.85996 24.3165 8.15842 24.3165C8.15842 27.8001 10.9914 30.6332 14.475 30.6332C17.9586 30.6332 20.7917 27.8001 20.7917 24.3165C20.7917 23.5712 22.1418 22.7374 23.95 22.7374C25.7582 22.7374 27.1083 23.5712 27.1083 24.3165C27.1083 27.8001 29.9414 30.6332 33.425 30.6332C36.9086 30.6332 39.7416 27.8001 39.7416 24.3165C40.04 24.3165 40.3133 24.1475 40.4475 23.8807L41.0191 22.7374H41.3208V23.527C41.3208 23.9629 41.6745 24.3166 42.1104 24.3166C42.5462 24.3166 42.9 23.9629 42.9 23.527V21.9479C42.8999 21.512 42.5461 21.1583 42.1102 21.1583ZM14.475 29.0541C11.8631 29.0541 9.73748 26.9285 9.73748 24.3166C9.73748 21.7047 11.8631 19.5791 14.475 19.5791C17.0869 19.5791 19.2124 21.7047 19.2124 24.3166C19.2124 26.9285 17.0869 29.0541 14.475 29.0541ZM33.4249 29.0541C30.813 29.0541 28.6874 26.9285 28.6874 24.3166C28.6874 21.7047 30.813 19.5791 33.4249 19.5791C36.0368 19.5791 38.1624 21.7047 38.1624 24.3166C38.1624 26.9285 36.0368 29.0541 33.4249 29.0541Z" fill="white"/>
</g>
<defs>
<linearGradient id="paint0_linear_7441_295" x1="10.8811" y1="1.58211" x2="34.5831" y2="47.1715" gradientUnits="userSpaceOnUse">
<stop stop-color="#33343B"/>
<stop offset="1" stop-color="#18191E"/>
</linearGradient>
<clipPath id="clip0_7441_295">
<rect width="48" height="48" fill="white"/>
</clipPath>
</defs>
</svg>
